HIERARCHY
ROOT Hips
{
	OFFSET 0.00 0.00 0.00
	CHANNELS 6 Xposition Yposition Zposition Xrotation Yrotation Zrotation
	JOINT Spine
	{
		OFFSET 0.00000 7.53995 0.00000
		CHANNELS 3 Xrotation Yrotation Zrotation
		JOINT Head
		{
			OFFSET 0.00000 15.09381 0.00000
			CHANNELS 3 Xrotation Yrotation Zrotation
			End Site
			{
				OFFSET 0.00000 4.52755 0.00000
			}
		}
		JOINT LeftShoulder
		{
			OFFSET 0.00000 9.73893 0.00000
			CHANNELS 3 Xrotation Yrotation Zrotation
			JOINT LeftArm
			{
				OFFSET 7.08401 0.00000 0.00000
				CHANNELS 3 Xrotation Yrotation Zrotation
				JOINT LeftForeArm
				{
					OFFSET 10.25932 0.00000 0.00000
					CHANNELS 3 Zrotation Yrotation Xrotation
					JOINT LeftHand
					{
						OFFSET 9.89698 0.00000 0.00000
						CHANNELS 3 Xrotation Yrotation Zrotation
						JOINT LeftHandThumb1
						{
							OFFSET 0.00000 0.00000 0.00000
							CHANNELS 3 Xrotation Yrotation Zrotation
							End Site
							{
								OFFSET 0.00000 0.00000 3.93700
							}
						}
						End Site
						{
							OFFSET 3.93700 0.00000 0.00000
						}
					}
				}
			}
		}
		JOINT RightShoulder
		{
			OFFSET 0.00000 9.73893 0.00000
			CHANNELS 3 Xrotation Yrotation Zrotation
			JOINT RightArm
			{
				OFFSET -7.08401 0.00000 0.00000
				CHANNELS 3 Xrotation Yrotation Zrotation
				JOINT RightForeArm
				{
					OFFSET -10.25932 0.00000 0.00000
					CHANNELS 3 Zrotation Yrotation Xrotation
					JOINT RightHand
					{
						OFFSET -9.89698 0.00000 0.00000
						CHANNELS 3 Xrotation Yrotation Zrotation
						JOINT RightHandThumb1
						{
							OFFSET 0.00000 0.00000 0.00000
							CHANNELS 3 Xrotation Yrotation Zrotation
							End Site
							{
								OFFSET 0.00000 0.00000 3.93700
							}
						}
						End Site
						{
							OFFSET -3.93700 0.00000 0.00000
						}
					}
				}
			}
		}
	}
	JOINT LeftUpLeg
	{
		OFFSET 3.34548 0.00000 0.00000
		CHANNELS 3 Xrotation Yrotation Zrotation
		JOINT LeftLeg
		{
			OFFSET 0.00000 -19.11473 0.00000
			CHANNELS 3 Xrotation Yrotation Zrotation
			JOINT LeftFoot
			{
				OFFSET 0.00000 -16.04560 0.00000
				CHANNELS 3 Xrotation Yrotation Zrotation
				JOINT LeftToeBase
				{
					OFFSET 0.00000 -1.43467 5.35428
					CHANNELS 3 Xrotation Yrotation Zrotation
					End Site
					{
						OFFSET 0.00000 0.00000 2.95275
					}
				}
			}
		}
	}
	JOINT RightUpLeg
	{
		OFFSET -3.34548 0.00000 0.00000
		CHANNELS 3 Xrotation Yrotation Zrotation
		JOINT RightLeg
		{
			OFFSET 0.00000 -19.11473 0.00000
			CHANNELS 3 Xrotation Yrotation Zrotation
			JOINT RightFoot
			{
				OFFSET 0.00000 -16.04560 0.00000
				CHANNELS 3 Xrotation Yrotation Zrotation
				JOINT RightToeBase
				{
					OFFSET 0.00000 -1.43467 5.35428
					CHANNELS 3 Xrotation Yrotation Zrotation
					End Site
					{
						OFFSET 0.00000 0.00000 2.95275
					}
				}
			}
		}
	}
}
MOTION
Frames:	7
Frame Time: 0.008333
1.0577 37.2735 -6.4109 61.9537 -5.3491 19.2614 31.3625 2.3726 4.9085 -9.2850 -5.6419 17.4295 15.0183 7.8065 15.7085 -7.6766 -19.5293 -64.1620 -0.0000 -19.8475 -40.9023 -1.5893 -10.3001 -8.8203 32.8623 24.3270 0.0000 -12.3876 -2.8065 -7.4560 -6.6444 -10.4998 60.9266 0.0000 15.5425 11.5694 -0.0575 -15.8137 -0.2109 33.1476 -26.2537 -0.0000 -66.8958 17.1826 -2.5040 5.2091 -0.0000 -0.0000 0.4627 -2.2864 -7.6655 -2.5156 0.0000 -0.0000 -69.0723 6.5628 -8.9210 2.9388 -0.0000 -0.0000 3.1902 -5.4029 25.6865 10.4040 -0.0000 -0.0000
1.0003 37.2736 -6.4473 62.1911 -5.1920 18.9017 31.4134 2.4333 4.4135 -9.1141 -5.7972 17.2383 14.9815 7.5579 15.9856 -7.6870 -19.2766 -64.0639 0.0000 -19.7120 -41.0868 -1.6064 -10.4090 -8.8228 32.8623 24.3270 0.0000 -12.2749 -2.9708 -7.3207 -6.4730 -10.2383 60.8449 -0.0000 15.5876 11.2738 -0.0586 -15.8187 -0.2148 33.1476 -26.2537 -0.0000 -67.2772 17.0406 -2.3112 5.2046 -0.0000 -0.0000 0.5314 -2.4515 -7.6992 -2.5073 0.0000 -0.0000 -69.3763 6.2416 -8.7436 3.0037 -0.0000 -0.0000 3.1558 -5.4424 25.6080 10.4329 -0.0000 -0.0000
0.9352 37.2751 -6.4753 62.1654 -5.1436 18.4274 31.9410 2.3213 4.0698 -9.2418 -5.8523 16.8384 14.7713 7.5402 16.1363 -7.6511 -19.1043 -63.9652 0.0000 -19.6685 -41.0152 -1.5319 -10.4124 -8.4169 32.8623 24.3270 0.0000 -12.4098 -2.9146 -7.3657 -6.4344 -10.1604 60.9197 0.0000 15.5233 11.2004 -0.0508 -15.6991 -0.1878 33.1476 -26.2537 -0.0000 -67.3874 16.8039 -2.0555 5.2098 -0.0000 -0.0000 0.5705 -2.6103 -7.8080 -2.5148 0.0000 -0.0000 -69.3656 5.8200 -8.5101 3.0320 -0.0000 -0.0000 3.1412 -5.4729 25.4919 10.4623 -0.0000 -0.0000
0.8668 37.2761 -6.5024 62.1110 -5.0766 17.9082 32.4472 2.2807 3.7630 -9.3503 -5.9295 16.4643 14.5334 7.4124 16.3410 -7.5924 -18.8806 -63.8852 -0.0000 -19.6036 -41.0076 -1.5080 -10.4298 -8.2740 32.8623 24.3270 0.0000 -12.5191 -2.9059 -7.3743 -6.2471 -9.9025 60.9115 0.0000 15.5668 10.8843 -0.0403 -15.7574 -0.1483 33.1476 -26.2537 -0.0000 -67.4895 16.5889 -1.7975 5.2417 -0.0000 -0.0000 0.6053 -2.8384 -7.8643 -2.5136 0.0000 -0.0000 -69.2936 5.4208 -8.2867 3.0200 -0.0000 -0.0000 3.1466 -5.5710 25.4249 10.4077 -0.0000 -0.0000
0.8033 37.2763 -6.5398 62.2680 -4.9933 17.5103 32.6221 2.1734 3.2972 -9.3101 -5.9794 16.1785 14.4421 7.3575 16.5138 -7.5409 -18.6806 -63.7169 -0.0000 -19.5270 -41.0857 -1.4875 -10.3619 -8.2153 32.8623 24.3270 0.0000 -12.5262 -2.9574 -7.3432 -6.2423 -9.7683 60.9351 0.0000 15.5037 10.7783 -0.0394 -15.6705 -0.1457 33.1476 -26.2537 -0.0000 -67.8157 16.3810 -1.5414 5.2891 -0.0000 -0.0000 0.6372 -2.9615 -7.9118 -2.4954 0.0000 -0.0000 -69.4855 5.1153 -8.0535 3.0644 -0.0000 -0.0000 3.1365 -5.6375 25.3157 10.4172 -0.0000 -0.0000
0.7323 37.2765 -6.5659 62.0987 -4.9760 16.9605 33.2669 2.0804 3.0221 -9.5311 -5.9741 15.7064 14.2276 7.3203 16.6899 -7.5335 -18.5780 -63.6234 0.0000 -19.4181 -41.2156 -1.4553 -10.4112 -8.0025 32.8623 24.3270 0.0000 -12.6409 -2.9694 -7.4414 -6.2897 -9.5431 61.0011 -0.0000 15.4129 10.6006 -0.0470 -15.6277 -0.1745 33.1476 -26.2537 -0.0000 -67.8099 16.0813 -1.2592 5.3417 -0.0000 -0.0000 0.6493 -3.1376 -8.0110 -2.5101 0.0000 -0.0000 -69.3104 4.6078 -7.8023 3.0746 -0.0000 -0.0000 3.1151 -5.6569 25.1760 10.3969 -0.0000 -0.0000
0.6588 37.2768 -6.5885 61.8725 -4.9519 16.3361 33.9796 1.9936 2.8571 -9.7618 -6.0194 15.2291 13.9329 7.2513 16.8241 -7.4838 -18.4065 -63.5496 0.0000 -19.3207 -41.1936 -1.4170 -10.4280 -7.7820 32.8623 24.3270 0.0000 -12.8367 -2.8425 -7.5191 -5.5143 -8.5697 60.9603 -0.0000 15.8025 9.1558 -0.1910 -15.9826 -0.6937 33.1476 -26.2537 -0.0000 -67.7397 15.6355 -0.9727 5.3589 -0.0000 -0.0000 0.6820 -3.2417 -8.1088 -2.5799 0.0000 -0.0000 -69.0468 4.0322 -7.5427 3.0395 -0.0000 -0.0000 3.0987 -5.6848 25.0258 10.3785 -0.0000 -0.0000
